<svg xmlns:xlink="http://www.w3.org/1999/xlink" data-v-01741338="" id="Layer_2" xmlns="http://www.w3.org/2000/svg" viewBox="0 0 297.8 151.2" class="max-w-xs h-52 icon" width="320"  height="208" ><style>.st1,.st2{fill:#e0f2f3;stroke:#6bcad0;stroke-width:2.5;stroke-miterlimit:10}.st2{fill:#fff}.st7{fill:#f05234}.st11,.st22,.st23{stroke-miterlimit:10}.st11{stroke:#083b54;stroke-width:2.5;fill:#d3d4db}.st22,.st23{fill:none}.st22{opacity:.2;stroke:#f59223}.st23{stroke-linecap:round;stroke:#6bcad0;stroke-width:2}</style><ellipse cx="148.7" cy="48" rx="73.8" ry="27.3" class="st22" stroke="#F59223" fill="none"></ellipse><ellipse cx="148.7" cy="54.5" rx="109.1" ry="40.3" class="st22" stroke="#F59223" fill="none"></ellipse><ellipse cx="148.7" cy="59.7" rx="139" ry="51.3" class="st22" stroke="#F59223" fill="none"></ellipse><path d="M287.6 64.1l-23.9 26m-47.5-3.7l47.5 3.7-6.5-32.5m-200 17.1l41.1-34.3m-47.9-2l47.9 1.2M12.4 64.3l85.9-24.7m37 34.8l-37-34.8m0 .8l-25.7 61.8m26.1-61.5l23.3 70.4m8.7-102.2L98.3 40.4" class="st23" stroke="#6BCAD0" fill="none" stroke-width="2px"></path><circle cx="98.3" cy="39.6" r="17.4" class="st11" stroke="#083B54" fill="#D3D4DB" stroke-width="2.5px"></circle><circle cx="74.9" cy="102.2" r="10.8" class="st2" stroke="#6BCAD0" fill="#FFFFFF" stroke-width="2.5px"></circle><path d="M216.2 86.4l-28.5-33.5 15.1-40.8m-29.2 11.1l14.1 28.9m-4.8 57l33.3-22.7" class="st23" stroke="#6BCAD0" fill="none" stroke-width="2px"></path><circle cx="216.2" cy="86.4" r="10.8" class="st2" stroke="#6BCAD0" fill="#FFFFFF" stroke-width="2.5px"></circle><circle cx="130.7" cy="8.9" r="7.1" class="st1" stroke="#6BCAD0" fill="#E0F2F3" stroke-width="2.5px"></circle><circle cx="57.2" cy="74.7" r="8.9" class="st1" stroke="#6BCAD0" fill="#E0F2F3" stroke-width="2.5px"></circle><circle cx="263.7" cy="90.1" r="8.9" class="st1" stroke="#6BCAD0" fill="#E0F2F3" stroke-width="2.5px"></circle><circle cx="12.4" cy="64.3" r="11.1" class="st1" stroke="#6BCAD0" fill="#E0F2F3" stroke-width="2.5px"></circle><circle cx="50.4" cy="38.4" r="6.5" class="st2" stroke="#6BCAD0" fill="#FFFFFF" stroke-width="2.5px"></circle><circle cx="187.7" cy="52.1" r="7.6" class="st2" stroke="#6BCAD0" fill="#FFFFFF" stroke-width="2.5px"></circle><circle cx="287.6" cy="64.1" r="6.5" class="st11" stroke="#083B54" fill="#D3D4DB" stroke-width="2.5px"></circle><circle cx="173.6" cy="23.2" r="6.5" class="st2" stroke="#6BCAD0" fill="#FFFFFF" stroke-width="2.5px"></circle><path d="M253.4 25.4l3.8 32.2-38.9-16.9" class="st23" stroke="#6BCAD0" fill="none" stroke-width="2px"></path><circle cx="182.9" cy="109.1" r="8.4" class="st11" stroke="#083B54" fill="#D3D4DB" stroke-width="2.5px"></circle><ellipse cx="135.3" cy="74.4" rx="7.5" ry="7.3" class="st1" stroke="#6BCAD0" fill="#E0F2F3" stroke-width="2.5px"></ellipse><ellipse cx="253.4" cy="25.4" rx="8.2" ry="8" class="st1" stroke="#6BCAD0" fill="#E0F2F3" stroke-width="2.5px"></ellipse><ellipse cx="202.8" cy="12.1" rx="7.5" ry="7.3" class="st1" stroke="#6BCAD0" fill="#E0F2F3" stroke-width="2.5px"></ellipse><circle cx="121.8" cy="109.1" r="7.9" class="st1" stroke="#6BCAD0" fill="#E0F2F3" stroke-width="2.5px"></circle><path d="M75.4 14.9l6.8 15.7 24.8-7.1-2.7-16.8-4.1 8-5.9-5.2-2.8 7.7-6.1-5.2-2.4 7.6z" fill="#F05234" stroke="#EF5434" stroke-width="0.776px" stroke-linejoin="round" stroke-miterlimit="10"></path><circle transform="rotate(-15.888 75.385 14.901)" cx="75.4" cy="14.9" r="1.8" class="st7" fill="#F05234"></circle><circle transform="rotate(-15.888 85.21 11.302)" cx="85.2" cy="11.3" r="1.8" class="st7" fill="#F05234"></circle><circle transform="rotate(-15.888 94.012 8.797)" cx="94" cy="8.8" r="1.8" class="st7" fill="#F05234"></circle><circle transform="rotate(-15.888 104.273 6.682)" cx="104.3" cy="6.7" r="1.8" class="st7" fill="#F05234"></circle><circle cx="218.3" cy="40.7" r="8.7" class="st11" stroke="#083B54" fill="#D3D4DB" stroke-width="2.5px"></circle><circle cx="257.2" cy="57.6" r="6.5" class="st2" stroke="#6BCAD0" fill="#FFFFFF" stroke-width="2.5px"></circle><path d="M216.3 150h.1c.6 0 1.1-.3 1.5-.7l8-10c.7-.9.6-2.1-.3-2.8-.9-.7-2.1-.6-2.8.3l-6.6 8.3-2.4-2.4c-.8-.8-2-.8-2.8 0-.8.8-.8 2 0 2.8l4 4c.3.3.8.5 1.3.5z" fill="#6BCAD0"></path><path d="M85.9 143l4-4c.7-.7.7-1.8 0-2.5s-1.8-.7-2.5 0l-4 4-4-4c-.7-.7-1.8-.7-2.5 0s-.7 1.8 0 2.5l4 4-4 4c-.7.7-.7 1.8 0 2.5.3.3.8.5 1.2.5.4 0 .9-.2 1.2-.5l4-4 4 4c.3.3.8.5 1.2.5.4 0 .9-.2 1.2-.5.7-.7.7-1.8 0-2.5l-3.8-4z" class="st7" fill="#F05234"></path></svg>